<svg xmlns="http://www.w3.org/2000/svg" xmlns:xlink="http://www.w3.org/1999/xlink" viewBox="0 0 532.28 342.05"><defs><style>.cls-1{fill:url(#linear-gradient);}.cls-2{fill:url(#linear-gradient-2);}.cls-3{fill:url(#linear-gradient-3);}.cls-4{fill:url(#linear-gradient-4);}.cls-5{fill:url(#linear-gradient-5);}.cls-6{fill:#1d1d1b;}.cls-7{fill:url(#linear-gradient-6);}.cls-8{fill:none;stroke-miterlimit:10;stroke:url(#linear-gradient-11);}.cls-9{font-size:91px;fill:#fff;font-family:Pragmatica-Bold, Pragmatica;font-weight:700;}.cls-10{letter-spacing:-0.04em;}</style><linearGradient id="linear-gradient" x1="7.54" y1="99.65" x2="168.17" y2="99.65" gradientUnits="userSpaceOnUse"><stop offset="0.02" stop-color="#fb1efb"/><stop offset="0.37" stop-color="#ff389f"/><stop offset="0.44" stop-color="#ff3b9b"/><stop offset="0.52" stop-color="#fe468f"/><stop offset="0.59" stop-color="#fd587b"/><stop offset="0.66" stop-color="#fc705f"/><stop offset="0.74" stop-color="#fb8f3b"/><stop offset="0.81" stop-color="#f9b312"/></linearGradient><linearGradient id="linear-gradient-2" x1="183.8" y1="127.36" x2="325.8" y2="127.36" xlink:href="#linear-gradient"/><linearGradient id="linear-gradient-3" x1="342.57" y1="99.65" x2="467.69" y2="99.65" xlink:href="#linear-gradient"/><linearGradient id="linear-gradient-4" x1="483.79" y1="127.36" x2="524.5" y2="127.36" xlink:href="#linear-gradient"/><linearGradient id="linear-gradient-5" x1="483.55" y1="21.09" x2="524.74" y2="21.09" xlink:href="#linear-gradient"/><linearGradient id="linear-gradient-6" x1="29.23" y1="236.37" x2="505.37" y2="-38.54" gradientUnits="userSpaceOnUse"><stop offset="0.02" stop-color="#fb1efb"/><stop offset="0.04" stop-color="#fc22ed"/><stop offset="0.12" stop-color="#fd2bcb"/><stop offset="0.19" stop-color="#fe32b3"/><stop offset="0.26" stop-color="#ff37a4"/><stop offset="0.31" stop-color="#ff389f"/><stop offset="0.45" stop-color="#fd5d75"/><stop offset="0.58" stop-color="#fc7955"/><stop offset="0.66" stop-color="#fb8349"/><stop offset="0.71" stop-color="#fa9238"/><stop offset="0.8" stop-color="#faa423"/><stop offset="0.89" stop-color="#f9af16"/><stop offset="0.97" stop-color="#f9b312"/></linearGradient><linearGradient id="linear-gradient-11" x1="7.54" y1="99.65" x2="524.74" y2="99.65" gradientUnits="userSpaceOnUse"><stop offset="0.1" stop-color="#fb1efb"/><stop offset="0.12" stop-color="#fc22ed"/><stop offset="0.17" stop-color="#fd2bcb"/><stop offset="0.22" stop-color="#fe32b3"/><stop offset="0.27" stop-color="#ff37a4"/><stop offset="0.31" stop-color="#ff389f"/><stop offset="0.45" stop-color="#fd5d75"/><stop offset="0.58" stop-color="#fc7955"/><stop offset="0.66" stop-color="#fb8349"/><stop offset="0.71" stop-color="#fa9238"/><stop offset="0.8" stop-color="#faa423"/><stop offset="0.89" stop-color="#f9af16"/><stop offset="0.97" stop-color="#f9b312"/></linearGradient></defs><g id="Layer_2" data-name="Layer 2"><g id="Layer_1-2" data-name="Layer 1"><path class="cls-1" d="M142.9,28.67A85.32,85.32,0,0,0,113.92,8,92.11,92.11,0,0,0,76.31.5H7.54V198.81H76.31a92.75,92.75,0,0,0,37.61-7.42,84.14,84.14,0,0,0,29-20.69,94.28,94.28,0,0,0,18.65-31.44,114.93,114.93,0,0,0,6.62-39.68,114.47,114.47,0,0,0-6.62-39.53A93.51,93.51,0,0,0,142.9,28.67Zm-20.17,97.59A59.07,59.07,0,0,1,113,146.34,43.08,43.08,0,0,1,97.34,159a48.25,48.25,0,0,1-21,4.42H48.85V35.89H76.31a48.1,48.1,0,0,1,21,4.42A43.08,43.08,0,0,1,113,53,59.11,59.11,0,0,1,122.73,73a96.05,96.05,0,0,1,3.4,26.54A96.48,96.48,0,0,1,122.73,126.26Z"/><path class="cls-2" d="M325.54,129.72c-1-16.23-3.37-73.81-67.89-73.81-43,0-73.85,25.39-73.85,71.19,0,68,53.38,71.71,70.74,71.71,24.1,0,58-5.76,68.41-43.45h-39.9c-3.37,11.78-15.29,16.75-26.69,16.75-25.4,0-31.62-22.24-31.62-35.07H325.8ZM224.74,114.8c.78-13.61,9.07-32.19,32.39-32.19,9.59,0,26.95,3.66,27.73,32.19Z"/><polygon class="cls-3" points="342.57 198.81 383.21 198.81 383.21 122.88 454.63 122.88 454.63 84.36 383.21 84.36 383.21 39.03 467.69 39.03 467.69 0.5 342.57 0.5 342.57 198.81"/><rect class="cls-4" x="483.79" y="55.91" width="40.7" height="142.89"/><circle class="cls-5" cx="504.15" cy="21.09" r="20.59"/><path class="cls-6" d="M142.9,28.67A85.32,85.32,0,0,0,113.92,8,92.11,92.11,0,0,0,76.31.5H7.54V198.81H76.31a92.75,92.75,0,0,0,37.61-7.42,84.14,84.14,0,0,0,29-20.69,94.28,94.28,0,0,0,18.65-31.44,114.93,114.93,0,0,0,6.62-39.68,114.47,114.47,0,0,0-6.62-39.53A93.51,93.51,0,0,0,142.9,28.67Zm-20.17,97.59A59.07,59.07,0,0,1,113,146.34,43.08,43.08,0,0,1,97.34,159a48.25,48.25,0,0,1-21,4.42H48.85V35.89H76.31a48.1,48.1,0,0,1,21,4.42A43.08,43.08,0,0,1,113,53,59.11,59.11,0,0,1,122.73,73a96.05,96.05,0,0,1,3.4,26.54A96.48,96.48,0,0,1,122.73,126.26Z"/><path class="cls-6" d="M325.54,129.72c-1-16.23-3.37-73.81-67.89-73.81-43,0-73.85,25.39-73.85,71.19,0,68,53.38,71.71,70.74,71.71,24.1,0,58-5.76,68.41-43.45h-39.9c-3.37,11.78-15.29,16.75-26.69,16.75-25.4,0-31.62-22.24-31.62-35.07H325.8ZM224.74,114.8c.78-13.61,9.07-32.19,32.39-32.19,9.59,0,26.95,3.66,27.73,32.19Z"/><polygon class="cls-6" points="342.57 198.81 383.21 198.81 383.21 122.88 454.63 122.88 454.63 84.36 383.21 84.36 383.21 39.03 467.69 39.03 467.69 0.5 342.57 0.5 342.57 198.81"/><rect class="cls-6" x="483.79" y="55.91" width="40.7" height="142.89"/><circle class="cls-6" cx="504.15" cy="21.09" r="20.59"/><path class="cls-7" d="M142.9,28.67A85.32,85.32,0,0,0,113.92,8,92.11,92.11,0,0,0,76.31.5H7.54V198.81H76.31a92.75,92.75,0,0,0,37.61-7.42,84.14,84.14,0,0,0,29-20.69,94.28,94.28,0,0,0,18.65-31.44,114.93,114.93,0,0,0,6.62-39.68,114.47,114.47,0,0,0-6.62-39.53A93.51,93.51,0,0,0,142.9,28.67Zm-20.17,97.59A59.07,59.07,0,0,1,113,146.34,43.08,43.08,0,0,1,97.34,159a48.25,48.25,0,0,1-21,4.42H48.85V35.89H76.31a48.1,48.1,0,0,1,21,4.42A43.08,43.08,0,0,1,113,53,59.11,59.11,0,0,1,122.73,73a96.05,96.05,0,0,1,3.4,26.54A96.48,96.48,0,0,1,122.73,126.26Z"/><path class="cls-7" d="M325.54,129.72c-1-16.23-3.37-73.81-67.89-73.81-43,0-73.85,25.39-73.85,71.19,0,68,53.38,71.71,70.74,71.71,24.1,0,58-5.76,68.41-43.45h-39.9c-3.37,11.78-15.29,16.75-26.69,16.75-25.4,0-31.62-22.24-31.62-35.07H325.8ZM224.74,114.8c.78-13.61,9.07-32.19,32.39-32.19,9.59,0,26.95,3.66,27.73,32.19Z"/><polygon class="cls-7" points="342.57 198.81 383.21 198.81 383.21 122.88 454.63 122.88 454.63 84.36 383.21 84.36 383.21 39.03 467.69 39.03 467.69 0.5 342.57 0.5 342.57 198.81"/><rect class="cls-7" x="483.79" y="55.91" width="40.7" height="142.89"/><circle class="cls-7" cx="504.15" cy="21.09" r="20.59"/><path class="cls-8" d="M142.9,28.67A85.32,85.32,0,0,0,113.92,8,92.11,92.11,0,0,0,76.31.5H7.54V198.81H76.31a92.75,92.75,0,0,0,37.61-7.42,84.14,84.14,0,0,0,29-20.69,94.28,94.28,0,0,0,18.65-31.44,114.93,114.93,0,0,0,6.62-39.68,114.47,114.47,0,0,0-6.62-39.53A93.51,93.51,0,0,0,142.9,28.67Zm-20.17,97.59A59.07,59.07,0,0,1,113,146.34,43.08,43.08,0,0,1,97.34,159a48.25,48.25,0,0,1-21,4.42H48.85V35.89H76.31a48.1,48.1,0,0,1,21,4.42A43.08,43.08,0,0,1,113,53,59.11,59.11,0,0,1,122.73,73a96.05,96.05,0,0,1,3.4,26.54A96.48,96.48,0,0,1,122.73,126.26Z"/><path class="cls-8" d="M325.54,129.72c-1-16.23-3.37-73.81-67.89-73.81-43,0-73.85,25.39-73.85,71.19,0,68,53.38,71.71,70.74,71.71,24.1,0,58-5.76,68.41-43.45h-39.9c-3.37,11.78-15.29,16.75-26.69,16.75-25.4,0-31.62-22.24-31.62-35.07H325.8ZM224.74,114.8c.78-13.61,9.07-32.19,32.39-32.19,9.59,0,26.95,3.66,27.73,32.19Z"/><polygon class="cls-8" points="342.57 198.81 383.21 198.81 383.21 122.88 454.63 122.88 454.63 84.36 383.21 84.36 383.21 39.03 467.69 39.03 467.69 0.5 342.57 0.5 342.57 198.81"/><rect class="cls-8" x="483.79" y="55.91" width="40.7" height="142.89"/><circle class="cls-8" cx="504.15" cy="21.09" r="20.59"/><text class="cls-9" transform="translate(0 299.12)">Desde Ce<tspan class="cls-10" x="436.43" y="0">r</tspan><tspan x="471.19" y="0">o</tspan></text></g></g></svg>