<svg xmlns="http://www.w3.org/2000/svg" xmlns:xlink="http://www.w3.org/1999/xlink" viewBox="0 0 518.2 199.31"><defs><style>.cls-1{fill:url(#linear-gradient);}.cls-2{fill:url(#linear-gradient-2);}.cls-3{fill:url(#linear-gradient-3);}.cls-4{fill:url(#linear-gradient-4);}.cls-5{fill:url(#linear-gradient-5);}.cls-6{fill:#1d1d1b;}.cls-7{fill:url(#linear-gradient-6);}.cls-8{fill:none;stroke-miterlimit:10;stroke:url(#linear-gradient-11);}</style><linearGradient id="linear-gradient" x1="0.5" y1="99.65" x2="161.13" y2="99.65" gradientUnits="userSpaceOnUse"><stop offset="0.02" stop-color="#fb1efb"/><stop offset="0.37" stop-color="#ff389f"/><stop offset="0.44" stop-color="#ff3b9b"/><stop offset="0.52" stop-color="#fe468f"/><stop offset="0.59" stop-color="#fd587b"/><stop offset="0.66" stop-color="#fc705f"/><stop offset="0.74" stop-color="#fb8f3b"/><stop offset="0.81" stop-color="#f9b312"/></linearGradient><linearGradient id="linear-gradient-2" x1="176.76" y1="127.36" x2="318.76" y2="127.36" xlink:href="#linear-gradient"/><linearGradient id="linear-gradient-3" x1="335.53" y1="99.65" x2="460.65" y2="99.65" xlink:href="#linear-gradient"/><linearGradient id="linear-gradient-4" x1="476.75" y1="127.36" x2="517.46" y2="127.36" xlink:href="#linear-gradient"/><linearGradient id="linear-gradient-5" x1="476.51" y1="21.09" x2="517.7" y2="21.09" xlink:href="#linear-gradient"/><linearGradient id="linear-gradient-6" x1="22.18" y1="236.37" x2="498.33" y2="-38.54" gradientUnits="userSpaceOnUse"><stop offset="0.02" stop-color="#fb1efb"/><stop offset="0.04" stop-color="#fc22ed"/><stop offset="0.12" stop-color="#fd2bcb"/><stop offset="0.19" stop-color="#fe32b3"/><stop offset="0.26" stop-color="#ff37a4"/><stop offset="0.31" stop-color="#ff389f"/><stop offset="0.45" stop-color="#fd5d75"/><stop offset="0.58" stop-color="#fc7955"/><stop offset="0.66" stop-color="#fb8349"/><stop offset="0.71" stop-color="#fa9238"/><stop offset="0.8" stop-color="#faa423"/><stop offset="0.89" stop-color="#f9af16"/><stop offset="0.97" stop-color="#f9b312"/></linearGradient><linearGradient id="linear-gradient-11" x1="0.5" y1="99.65" x2="517.7" y2="99.65" gradientUnits="userSpaceOnUse"><stop offset="0.1" stop-color="#fb1efb"/><stop offset="0.12" stop-color="#fc22ed"/><stop offset="0.17" stop-color="#fd2bcb"/><stop offset="0.22" stop-color="#fe32b3"/><stop offset="0.27" stop-color="#ff37a4"/><stop offset="0.31" stop-color="#ff389f"/><stop offset="0.45" stop-color="#fd5d75"/><stop offset="0.58" stop-color="#fc7955"/><stop offset="0.66" stop-color="#fb8349"/><stop offset="0.71" stop-color="#fa9238"/><stop offset="0.8" stop-color="#faa423"/><stop offset="0.89" stop-color="#f9af16"/><stop offset="0.97" stop-color="#f9b312"/></linearGradient></defs><g id="Layer_2" data-name="Layer 2"><g id="Layer_1-2" data-name="Layer 1"><path class="cls-1" d="M135.86,28.67A85.32,85.32,0,0,0,106.88,8,92.11,92.11,0,0,0,69.27.5H.5V198.81H69.27a92.75,92.75,0,0,0,37.61-7.42,84.14,84.14,0,0,0,29-20.69,94.28,94.28,0,0,0,18.65-31.44,114.93,114.93,0,0,0,6.62-39.68,114.47,114.47,0,0,0-6.62-39.53A93.51,93.51,0,0,0,135.86,28.67Zm-20.17,97.59a59.07,59.07,0,0,1-9.78,20.08A43,43,0,0,1,90.29,159a48.17,48.17,0,0,1-21,4.42H41.81V35.89H69.27a48,48,0,0,1,21,4.42A43,43,0,0,1,105.91,53,59.11,59.11,0,0,1,115.69,73a96.05,96.05,0,0,1,3.4,26.54A96.48,96.48,0,0,1,115.69,126.26Z"/><path class="cls-2" d="M318.5,129.72c-1-16.23-3.37-73.81-67.89-73.81-43,0-73.85,25.39-73.85,71.19,0,68,53.38,71.71,70.74,71.71,24.1,0,58-5.76,68.41-43.45H276c-3.36,11.78-15.28,16.75-26.69,16.75-25.39,0-31.61-22.24-31.61-35.07H318.76ZM217.7,114.8c.78-13.61,9.07-32.19,32.39-32.19,9.59,0,27,3.66,27.73,32.19Z"/><polygon class="cls-3" points="335.53 198.81 376.17 198.81 376.17 122.88 447.59 122.88 447.59 84.36 376.17 84.36 376.17 39.03 460.65 39.03 460.65 0.5 335.53 0.5 335.53 198.81"/><rect class="cls-4" x="476.75" y="55.91" width="40.7" height="142.89"/><circle class="cls-5" cx="497.1" cy="21.09" r="20.59"/><path class="cls-6" d="M135.86,28.67A85.32,85.32,0,0,0,106.88,8,92.11,92.11,0,0,0,69.27.5H.5V198.81H69.27a92.75,92.75,0,0,0,37.61-7.42,84.14,84.14,0,0,0,29-20.69,94.28,94.28,0,0,0,18.65-31.44,114.93,114.93,0,0,0,6.62-39.68,114.47,114.47,0,0,0-6.62-39.53A93.51,93.51,0,0,0,135.86,28.67Zm-20.17,97.59a59.07,59.07,0,0,1-9.78,20.08A43,43,0,0,1,90.29,159a48.17,48.17,0,0,1-21,4.42H41.81V35.89H69.27a48,48,0,0,1,21,4.42A43,43,0,0,1,105.91,53,59.11,59.11,0,0,1,115.69,73a96.05,96.05,0,0,1,3.4,26.54A96.48,96.48,0,0,1,115.69,126.26Z"/><path class="cls-6" d="M318.5,129.72c-1-16.23-3.37-73.81-67.89-73.81-43,0-73.85,25.39-73.85,71.19,0,68,53.38,71.71,70.74,71.71,24.1,0,58-5.76,68.41-43.45H276c-3.36,11.78-15.28,16.75-26.69,16.75-25.39,0-31.61-22.24-31.61-35.07H318.76ZM217.7,114.8c.78-13.61,9.07-32.19,32.39-32.19,9.59,0,27,3.66,27.73,32.19Z"/><polygon class="cls-6" points="335.53 198.81 376.17 198.81 376.17 122.88 447.59 122.88 447.59 84.36 376.17 84.36 376.17 39.03 460.65 39.03 460.65 0.5 335.53 0.5 335.53 198.81"/><rect class="cls-6" x="476.75" y="55.91" width="40.7" height="142.89"/><circle class="cls-6" cx="497.1" cy="21.09" r="20.59"/><path class="cls-7" d="M135.86,28.67A85.32,85.32,0,0,0,106.88,8,92.11,92.11,0,0,0,69.27.5H.5V198.81H69.27a92.75,92.75,0,0,0,37.61-7.42,84.14,84.14,0,0,0,29-20.69,94.28,94.28,0,0,0,18.65-31.44,114.93,114.93,0,0,0,6.62-39.68,114.47,114.47,0,0,0-6.62-39.53A93.51,93.51,0,0,0,135.86,28.67Zm-20.17,97.59a59.07,59.07,0,0,1-9.78,20.08A43,43,0,0,1,90.29,159a48.17,48.17,0,0,1-21,4.42H41.81V35.89H69.27a48,48,0,0,1,21,4.42A43,43,0,0,1,105.91,53,59.11,59.11,0,0,1,115.69,73a96.05,96.05,0,0,1,3.4,26.54A96.48,96.48,0,0,1,115.69,126.26Z"/><path class="cls-7" d="M318.5,129.72c-1-16.23-3.37-73.81-67.89-73.81-43,0-73.85,25.39-73.85,71.19,0,68,53.38,71.71,70.74,71.71,24.1,0,58-5.76,68.41-43.45H276c-3.36,11.78-15.28,16.75-26.69,16.75-25.39,0-31.61-22.24-31.61-35.07H318.76ZM217.7,114.8c.78-13.61,9.07-32.19,32.39-32.19,9.59,0,27,3.66,27.73,32.19Z"/><polygon class="cls-7" points="335.53 198.81 376.17 198.81 376.17 122.88 447.59 122.88 447.59 84.36 376.17 84.36 376.17 39.03 460.65 39.03 460.65 0.5 335.53 0.5 335.53 198.81"/><rect class="cls-7" x="476.75" y="55.91" width="40.7" height="142.89"/><circle class="cls-7" cx="497.1" cy="21.09" r="20.59"/><path class="cls-8" d="M135.86,28.67A85.32,85.32,0,0,0,106.88,8,92.11,92.11,0,0,0,69.27.5H.5V198.81H69.27a92.75,92.75,0,0,0,37.61-7.42,84.14,84.14,0,0,0,29-20.69,94.28,94.28,0,0,0,18.65-31.44,114.93,114.93,0,0,0,6.62-39.68,114.47,114.47,0,0,0-6.62-39.53A93.51,93.51,0,0,0,135.86,28.67Zm-20.17,97.59a59.07,59.07,0,0,1-9.78,20.08A43,43,0,0,1,90.29,159a48.17,48.17,0,0,1-21,4.42H41.81V35.89H69.27a48,48,0,0,1,21,4.42A43,43,0,0,1,105.91,53,59.11,59.11,0,0,1,115.69,73a96.05,96.05,0,0,1,3.4,26.54A96.48,96.48,0,0,1,115.69,126.26Z"/><path class="cls-8" d="M318.5,129.72c-1-16.23-3.37-73.81-67.89-73.81-43,0-73.85,25.39-73.85,71.19,0,68,53.38,71.71,70.74,71.71,24.1,0,58-5.76,68.41-43.45H276c-3.36,11.78-15.28,16.75-26.69,16.75-25.39,0-31.61-22.24-31.61-35.07H318.76ZM217.7,114.8c.78-13.61,9.07-32.19,32.39-32.19,9.59,0,27,3.66,27.73,32.19Z"/><polygon class="cls-8" points="335.53 198.81 376.17 198.81 376.17 122.88 447.59 122.88 447.59 84.36 376.17 84.36 376.17 39.03 460.65 39.03 460.65 0.5 335.53 0.5 335.53 198.81"/><rect class="cls-8" x="476.75" y="55.91" width="40.7" height="142.89"/><circle class="cls-8" cx="497.1" cy="21.09" r="20.59"/></g></g></svg>