<svg xmlns="http://www.w3.org/2000/svg" xmlns:xlink="http://www.w3.org/1999/xlink" viewBox="0 0 841.74 199.31"><defs><style>.cls-1{fill:#fff;}.cls-2{fill:url(#linear-gradient);}.cls-3{fill:url(#linear-gradient-2);}.cls-4{fill:url(#linear-gradient-3);}.cls-5{fill:url(#linear-gradient-4);}.cls-6{fill:url(#linear-gradient-5);}.cls-7{fill:#1d1d1b;}.cls-8{fill:url(#linear-gradient-6);}.cls-9{fill:none;stroke-miterlimit:10;stroke:url(#linear-gradient-11);}</style><linearGradient id="linear-gradient" x1="0.5" y1="99.65" x2="161.13" y2="99.65" gradientUnits="userSpaceOnUse"><stop offset="0.02" stop-color="#fb1efb"/><stop offset="0.37" stop-color="#ff389f"/><stop offset="0.44" stop-color="#ff3b9b"/><stop offset="0.52" stop-color="#fe468f"/><stop offset="0.59" stop-color="#fd587b"/><stop offset="0.66" stop-color="#fc705f"/><stop offset="0.74" stop-color="#fb8f3b"/><stop offset="0.81" stop-color="#f9b312"/></linearGradient><linearGradient id="linear-gradient-2" x1="176.76" y1="127.36" x2="318.76" y2="127.36" xlink:href="#linear-gradient"/><linearGradient id="linear-gradient-3" x1="335.53" y1="99.65" x2="460.65" y2="99.65" xlink:href="#linear-gradient"/><linearGradient id="linear-gradient-4" x1="476.75" y1="127.36" x2="517.46" y2="127.36" xlink:href="#linear-gradient"/><linearGradient id="linear-gradient-5" x1="476.51" y1="21.09" x2="517.7" y2="21.09" xlink:href="#linear-gradient"/><linearGradient id="linear-gradient-6" x1="-1470.56" y1="-29.38" x2="-994.42" y2="-304.28" gradientTransform="translate(1492.75 265.75)" gradientUnits="userSpaceOnUse"><stop offset="0.02" stop-color="#fb1efb"/><stop offset="0.04" stop-color="#fc22ed"/><stop offset="0.12" stop-color="#fd2bcb"/><stop offset="0.19" stop-color="#fe32b3"/><stop offset="0.26" stop-color="#ff37a4"/><stop offset="0.31" stop-color="#ff389f"/><stop offset="0.45" stop-color="#fd5d75"/><stop offset="0.58" stop-color="#fc7955"/><stop offset="0.66" stop-color="#fb8349"/><stop offset="0.71" stop-color="#fa9238"/><stop offset="0.8" stop-color="#faa423"/><stop offset="0.89" stop-color="#f9af16"/><stop offset="0.97" stop-color="#f9b312"/></linearGradient><linearGradient id="linear-gradient-11" x1="-1492.25" y1="-166.09" x2="-975.05" y2="-166.09" gradientTransform="translate(1492.75 265.75)" gradientUnits="userSpaceOnUse"><stop offset="0.1" stop-color="#fb1efb"/><stop offset="0.12" stop-color="#fc22ed"/><stop offset="0.17" stop-color="#fd2bcb"/><stop offset="0.22" stop-color="#fe32b3"/><stop offset="0.27" stop-color="#ff37a4"/><stop offset="0.31" stop-color="#ff389f"/><stop offset="0.45" stop-color="#fd5d75"/><stop offset="0.58" stop-color="#fc7955"/><stop offset="0.66" stop-color="#fb8349"/><stop offset="0.71" stop-color="#fa9238"/><stop offset="0.8" stop-color="#faa423"/><stop offset="0.89" stop-color="#f9af16"/><stop offset="0.97" stop-color="#f9b312"/></linearGradient></defs><g id="Capa_2" data-name="Capa 2"><g id="Layer_1" data-name="Layer 1"><path class="cls-1" d="M587.58,7.22c6.1,0,30.94.73,30.94,31.76,0,30.12-22,31.94-32.31,31.94h-26V7.22ZM575.2,58.54h9.56c11.74,0,17.56-6.09,17.56-19.29,0-17.65-10.37-19.66-16.65-19.66H575.2Z"/><path class="cls-1" d="M674.85,57.54c-3.64,13.11-15.56,15.11-24,15.11-6.1,0-24.84-1.27-24.84-24.94C626,31.79,636.81,23,651.91,23c22.66,0,23.48,20,23.85,25.66l.09,2.55H640.36c0,4.46,2.18,12.2,11.1,12.2,4,0,8.19-1.73,9.37-5.83Zm-13.38-14.1c-.27-9.92-6.37-11.2-9.74-11.2-8.19,0-11.1,6.47-11.37,11.2Z"/><path class="cls-1" d="M696.32,56.36c.27,5.1,3.73,7,9.28,7,3.19,0,7.28-1.37,7.28-4.92,0-5.37-6.37-6-13.28-7s-16.38-3.1-16.38-14.29c0-4.1,1.73-14.2,21.29-14.2,16.75,0,20.48,8.28,20.75,14.47H712.7c-.45-5.37-5.46-5.19-7.28-5.19-2.36,0-7.82.28-7.82,4,0,5.46,6.55,5.82,11.55,6.55,7.92,1.18,18.11,2.64,18.11,14.11,0,7-3.55,15.74-22.11,15.74-14.47,0-22.66-6.46-23-16.29Z"/><path class="cls-1" d="M768.76,70.92V65.37h-.18c-4.65,5.1-8.19,7.28-14,7.28-13,0-21-10.19-21-25,0-14.56,8.1-24.66,21.29-24.66,4.64,0,10.74,2.28,13.93,6.37V7.22h13.83v63.7Zm-10.1-38.68c-7.74,0-10.74,7.56-10.74,15.57,0,9.73,4.18,15.56,10.74,15.56,5.55,0,10.83-4.1,10.83-15.56C769.49,37.7,765.57,32.24,758.66,32.24Z"/><path class="cls-1" d="M840.74,57.54c-3.64,13.11-15.56,15.11-24,15.11-6.09,0-24.84-1.27-24.84-24.94C791.87,31.79,802.7,23,817.81,23c22.66,0,23.47,20,23.84,25.66l.09,2.55H806.25c0,4.46,2.18,12.2,11.1,12.2,4,0,8.19-1.73,9.37-5.83Zm-13.38-14.1c-.27-9.92-6.37-11.2-9.74-11.2-8.19,0-11.1,6.47-11.37,11.2Z"/><path class="cls-1" d="M617.34,157.64c-1,9.56-6.37,24.3-28.94,24.3-16.29,0-31.22-7.46-31.22-32.49,0-33.58,24.48-34.85,30.67-34.85,22.66,0,28.3,14.1,28.76,23.48H601.87C600.41,127.43,592,127,588.58,127s-15.2.64-15.2,21.94c0,12,5.46,20.65,15.65,20.65,9.92,0,12.65-7.19,13.38-11.92Z"/><path class="cls-1" d="M672.12,166.74c-3.64,13.11-15.56,15.11-24,15.11-6.1,0-24.84-1.28-24.84-24.94,0-15.92,10.83-24.75,25.93-24.75,22.66,0,23.48,20,23.85,25.66l.09,2.55H637.63c0,4.46,2.18,12.2,11.1,12.2,4,0,8.19-1.73,9.37-5.83Zm-13.38-14.1c-.27-9.92-6.37-11.2-9.74-11.2-8.19,0-11.1,6.46-11.37,11.2Z"/><path class="cls-1" d="M714,141.44a12.4,12.4,0,0,0-1.82-.09h-1.82c-7.92,0-14.29,3.55-14.29,19.84v18.93H682.22V133.89h13.83v7.55c3.64-7.55,10.19-9.28,16.29-9.28H714Z"/><path class="cls-1" d="M714.79,156.91c0-18.2,12.47-24.75,25.3-24.75,14.47,0,25.3,7.92,25.3,24.75,0,17-10.92,24.94-25.3,24.94S714.79,173.93,714.79,156.91Zm36.22,0c0-14.74-7.55-15.47-10.92-15.47-3.09,0-10.92.73-10.92,15.47,0,5.92,1.09,15.66,10.92,15.66S751,162.74,751,156.91Z"/><path class="cls-2" d="M135.86,28.67A85.32,85.32,0,0,0,106.88,8,92.11,92.11,0,0,0,69.27.5H.5V198.81H69.27a92.75,92.75,0,0,0,37.61-7.42,84.14,84.14,0,0,0,29-20.69,94.28,94.28,0,0,0,18.65-31.44,114.93,114.93,0,0,0,6.62-39.68,114.47,114.47,0,0,0-6.62-39.53A93.51,93.51,0,0,0,135.86,28.67Zm-20.17,97.59a59.07,59.07,0,0,1-9.78,20.08A43,43,0,0,1,90.29,159a48.17,48.17,0,0,1-21,4.42H41.81V35.89H69.27a48,48,0,0,1,21,4.42A43,43,0,0,1,105.91,53,59.11,59.11,0,0,1,115.69,73a96.05,96.05,0,0,1,3.4,26.54A96.48,96.48,0,0,1,115.69,126.26Z"/><path class="cls-3" d="M318.5,129.72c-1-16.23-3.37-73.81-67.89-73.81-43,0-73.85,25.39-73.85,71.19,0,68,53.38,71.71,70.74,71.71,24.1,0,58-5.76,68.41-43.45H276c-3.36,11.78-15.28,16.75-26.69,16.75-25.39,0-31.61-22.24-31.61-35.07H318.76ZM217.7,114.8c.78-13.61,9.07-32.19,32.39-32.19,9.59,0,27,3.66,27.73,32.19Z"/><polygon class="cls-4" points="335.53 198.81 376.17 198.81 376.17 122.88 447.59 122.88 447.59 84.36 376.17 84.36 376.17 39.03 460.65 39.03 460.65 0.5 335.53 0.5 335.53 198.81"/><rect class="cls-5" x="476.75" y="55.91" width="40.7" height="142.89"/><circle class="cls-6" cx="497.1" cy="21.09" r="20.59"/><path class="cls-7" d="M135.86,28.67A85.32,85.32,0,0,0,106.88,8,92.11,92.11,0,0,0,69.27.5H.5V198.81H69.27a92.75,92.75,0,0,0,37.61-7.42,84.14,84.14,0,0,0,29-20.69,94.28,94.28,0,0,0,18.65-31.44,114.93,114.93,0,0,0,6.62-39.68,114.47,114.47,0,0,0-6.62-39.53A93.51,93.51,0,0,0,135.86,28.67Zm-20.17,97.59a59.07,59.07,0,0,1-9.78,20.08A43,43,0,0,1,90.29,159a48.17,48.17,0,0,1-21,4.42H41.81V35.89H69.27a48,48,0,0,1,21,4.42A43,43,0,0,1,105.91,53,59.11,59.11,0,0,1,115.69,73a96.05,96.05,0,0,1,3.4,26.54A96.48,96.48,0,0,1,115.69,126.26Z"/><path class="cls-7" d="M318.5,129.72c-1-16.23-3.37-73.81-67.89-73.81-43,0-73.85,25.39-73.85,71.19,0,68,53.38,71.71,70.74,71.71,24.1,0,58-5.76,68.41-43.45H276c-3.36,11.78-15.28,16.75-26.69,16.75-25.39,0-31.61-22.24-31.61-35.07H318.76ZM217.7,114.8c.78-13.61,9.07-32.19,32.39-32.19,9.59,0,27,3.66,27.73,32.19Z"/><polygon class="cls-7" points="335.53 198.81 376.17 198.81 376.17 122.88 447.59 122.88 447.59 84.36 376.17 84.36 376.17 39.03 460.65 39.03 460.65 0.5 335.53 0.5 335.53 198.81"/><rect class="cls-7" x="476.75" y="55.91" width="40.7" height="142.89"/><circle class="cls-7" cx="497.1" cy="21.09" r="20.59"/><path class="cls-8" d="M135.86,28.67A85.32,85.32,0,0,0,106.88,8,92.11,92.11,0,0,0,69.27.5H.5V198.81H69.27a92.75,92.75,0,0,0,37.61-7.42,84.14,84.14,0,0,0,29-20.69,94.28,94.28,0,0,0,18.65-31.44,114.93,114.93,0,0,0,6.62-39.68,114.47,114.47,0,0,0-6.62-39.53A93.51,93.51,0,0,0,135.86,28.67Zm-20.17,97.59a59.07,59.07,0,0,1-9.78,20.08A43,43,0,0,1,90.29,159a48.17,48.17,0,0,1-21,4.42H41.81V35.89H69.27a48,48,0,0,1,21,4.42A43,43,0,0,1,105.91,53,59.11,59.11,0,0,1,115.69,73a96.05,96.05,0,0,1,3.4,26.54A96.48,96.48,0,0,1,115.69,126.26Z"/><path class="cls-8" d="M318.5,129.72c-1-16.23-3.37-73.81-67.89-73.81-43,0-73.85,25.39-73.85,71.19,0,68,53.38,71.71,70.74,71.71,24.1,0,58-5.76,68.41-43.45H276c-3.36,11.78-15.28,16.75-26.69,16.75-25.39,0-31.61-22.24-31.61-35.07H318.76ZM217.7,114.8c.78-13.61,9.07-32.19,32.39-32.19,9.59,0,27,3.66,27.73,32.19Z"/><polygon class="cls-8" points="335.53 198.81 376.17 198.81 376.17 122.88 447.59 122.88 447.59 84.36 376.17 84.36 376.17 39.03 460.65 39.03 460.65 0.5 335.53 0.5 335.53 198.81"/><rect class="cls-8" x="476.75" y="55.91" width="40.7" height="142.89"/><circle class="cls-8" cx="497.1" cy="21.09" r="20.59"/><path class="cls-9" d="M135.86,28.67A85.32,85.32,0,0,0,106.88,8,92.11,92.11,0,0,0,69.27.5H.5V198.81H69.27a92.75,92.75,0,0,0,37.61-7.42,84.14,84.14,0,0,0,29-20.69,94.28,94.28,0,0,0,18.65-31.44,114.93,114.93,0,0,0,6.62-39.68,114.47,114.47,0,0,0-6.62-39.53A93.51,93.51,0,0,0,135.86,28.67Zm-20.17,97.59a59.07,59.07,0,0,1-9.78,20.08A43,43,0,0,1,90.29,159a48.17,48.17,0,0,1-21,4.42H41.81V35.89H69.27a48,48,0,0,1,21,4.42A43,43,0,0,1,105.91,53,59.11,59.11,0,0,1,115.69,73a96.05,96.05,0,0,1,3.4,26.54A96.48,96.48,0,0,1,115.69,126.26Z"/><path class="cls-9" d="M318.5,129.72c-1-16.23-3.37-73.81-67.89-73.81-43,0-73.85,25.39-73.85,71.19,0,68,53.38,71.71,70.74,71.71,24.1,0,58-5.76,68.41-43.45H276c-3.36,11.78-15.28,16.75-26.69,16.75-25.39,0-31.61-22.24-31.61-35.07H318.76ZM217.7,114.8c.78-13.61,9.07-32.19,32.39-32.19,9.59,0,27,3.66,27.73,32.19Z"/><polygon class="cls-9" points="335.53 198.81 376.17 198.81 376.17 122.88 447.59 122.88 447.59 84.36 376.17 84.36 376.17 39.03 460.65 39.03 460.65 0.5 335.53 0.5 335.53 198.81"/><rect class="cls-9" x="476.75" y="55.91" width="40.7" height="142.89"/><circle class="cls-9" cx="497.1" cy="21.09" r="20.59"/></g></g></svg>