<?xml version="1.0" encoding="utf-8"?>
<!-- Generator: Adobe Illustrator 26.0.1, SVG Export Plug-In . SVG Version: 6.00 Build 0)  -->
<svg version="1.1" id="Capa_1" xmlns:serif="http://www.serif.com/"
	 xmlns="http://www.w3.org/2000/svg" xmlns:xlink="http://www.w3.org/1999/xlink" x="0px" y="0px" viewBox="0 0 1920 1080"
	 style="enable-background:new 0 0 1920 1080;" xml:space="preserve">
<style type="text/css">
	.st0{fill-rule:evenodd;clip-rule:evenodd;fill:#FFFFFF;}
</style>
<path class="st0" d="M1368.1,0c72.8,0,131.9,59.1,131.9,131.9v816.1c0,72.8-59.1,131.9-131.9,131.9H551.9
	c-72.8,0-131.9-59.1-131.9-131.9V131.9C420,59.1,479.1,0,551.9,0L1368.1,0L1368.1,0z M758.5,892.9V416.7H600.2v476.1H758.5z
	 M1329.1,892.9v-273c0-146.2-78.1-214.3-182.2-214.3c-84,0-121.6,46.2-142.6,78.6v-67.4H846.1c2.1,44.7,0,476.1,0,476.1h158.2V627
	c0-14.2,1-28.5,5.2-38.6c11.4-28.4,37.5-57.9,81.2-57.9c57.2,0,80.2,43.7,80.2,107.7v254.7H1329.1L1329.1,892.9z M680.4,187.1
	c-54.2,0-89.5,35.6-89.5,82.3c0,45.7,34.3,82.3,87.4,82.3h1c55.2,0,89.5-36.6,89.5-82.3C767.8,222.8,734.6,187.2,680.4,187.1
	L680.4,187.1z"/>
</svg>
